<?xml version="1.0" encoding="UTF-8" standalone="no"?>
<!DOCTYPE svg PUBLIC "-//W3C//DTD SVG 1.1//EN" "http://www.w3.org/Graphics/SVG/1.1/DTD/svg11.dtd">
<svg width="100%" height="100%" viewBox="0 0 2000 800" version="1.1" xmlns="http://www.w3.org/2000/svg" xmlns:xlink="http://www.w3.org/1999/xlink" xml:space="preserve" xmlns:serif="http://www.serif.com/" style="fill-rule:evenodd;clip-rule:evenodd;stroke-linejoin:round;stroke-miterlimit:2;">
    <g transform="matrix(1.592829,0,0,1.592829,305.724773,-1617.89557)">
        <g transform="matrix(50,0,0,50,168.447895,1492.239596)">
            <path d="M0.114,-0L0.114,-0.7L0.188,-0.7L0.188,-0.064L0.58,-0.064L0.58,-0L0.114,-0Z" style="fill:rgb(242,92,87);fill-rule:nonzero;"/>
        </g>
        <g transform="matrix(50,0,0,50,230.251206,1492.239596)">
            <path d="M0.42,0.006C0.367,0.006 0.318,-0.003 0.273,-0.02C0.228,-0.038 0.189,-0.063 0.156,-0.095C0.123,-0.128 0.098,-0.165 0.079,-0.208C0.061,-0.252 0.052,-0.299 0.052,-0.35C0.052,-0.401 0.061,-0.448 0.079,-0.492C0.098,-0.535 0.123,-0.572 0.156,-0.605C0.19,-0.637 0.229,-0.662 0.273,-0.68C0.318,-0.698 0.367,-0.706 0.42,-0.706C0.473,-0.706 0.521,-0.698 0.566,-0.68C0.611,-0.662 0.649,-0.637 0.682,-0.605C0.716,-0.573 0.741,-0.535 0.76,-0.492C0.778,-0.449 0.787,-0.401 0.787,-0.35C0.787,-0.299 0.778,-0.251 0.76,-0.208C0.741,-0.165 0.716,-0.127 0.682,-0.095C0.649,-0.063 0.611,-0.038 0.566,-0.02C0.521,-0.002 0.473,0.006 0.42,0.006ZM0.42,-0.06C0.462,-0.06 0.5,-0.067 0.536,-0.081C0.572,-0.096 0.603,-0.116 0.629,-0.142C0.656,-0.169 0.677,-0.2 0.691,-0.235C0.706,-0.27 0.713,-0.308 0.713,-0.35C0.713,-0.392 0.706,-0.43 0.691,-0.465C0.677,-0.5 0.656,-0.531 0.63,-0.557C0.603,-0.584 0.572,-0.604 0.536,-0.619C0.501,-0.633 0.462,-0.64 0.42,-0.64C0.378,-0.64 0.339,-0.633 0.303,-0.619C0.267,-0.604 0.236,-0.584 0.209,-0.557C0.183,-0.531 0.162,-0.5 0.148,-0.465C0.133,-0.43 0.125,-0.392 0.125,-0.35C0.125,-0.308 0.133,-0.27 0.148,-0.235C0.162,-0.2 0.183,-0.169 0.209,-0.142C0.236,-0.116 0.267,-0.096 0.303,-0.081C0.339,-0.067 0.378,-0.06 0.42,-0.06Z" style="fill:rgb(242,92,87);fill-rule:nonzero;"/>
        </g>
        <g transform="matrix(50,0,0,50,305.242866,1492.239596)">
            <path d="M0.421,0.006C0.368,0.006 0.319,-0.002 0.274,-0.02C0.229,-0.038 0.19,-0.063 0.157,-0.095C0.123,-0.127 0.098,-0.165 0.079,-0.208C0.061,-0.251 0.052,-0.299 0.052,-0.35C0.052,-0.401 0.061,-0.449 0.079,-0.492C0.098,-0.535 0.123,-0.573 0.157,-0.605C0.19,-0.637 0.23,-0.662 0.274,-0.68C0.319,-0.698 0.369,-0.706 0.422,-0.706C0.475,-0.706 0.524,-0.698 0.568,-0.681C0.613,-0.664 0.651,-0.639 0.682,-0.605L0.636,-0.558C0.607,-0.587 0.574,-0.608 0.539,-0.621C0.504,-0.634 0.466,-0.64 0.425,-0.64C0.382,-0.64 0.342,-0.633 0.306,-0.619C0.269,-0.604 0.237,-0.584 0.21,-0.557C0.183,-0.531 0.162,-0.501 0.148,-0.465C0.133,-0.43 0.125,-0.392 0.125,-0.35C0.125,-0.309 0.133,-0.27 0.148,-0.235C0.162,-0.2 0.183,-0.169 0.21,-0.143C0.237,-0.116 0.269,-0.096 0.305,-0.081C0.342,-0.067 0.381,-0.06 0.424,-0.06C0.464,-0.06 0.501,-0.066 0.537,-0.078C0.573,-0.09 0.606,-0.11 0.636,-0.139L0.678,-0.083C0.645,-0.053 0.606,-0.031 0.561,-0.016C0.516,-0.001 0.469,0.006 0.421,0.006ZM0.678,-0.083L0.607,-0.092L0.607,-0.35L0.678,-0.35L0.678,-0.083Z" style="fill:rgb(242,92,87);fill-rule:nonzero;"/>
        </g>
        <g transform="matrix(50,0,0,50,376.936202,1492.239596)">
            <rect x="0.114" y="-0.7" width="0.073" height="0.7" style="fill:rgb(242,92,87);fill-rule:nonzero;"/>
        </g>
        <g transform="matrix(50,0,0,50,425.079496,1492.239596)">
            <path d="M0.307,0.006C0.255,0.006 0.205,-0.002 0.157,-0.019C0.11,-0.036 0.073,-0.058 0.047,-0.085L0.076,-0.142C0.101,-0.118 0.134,-0.098 0.176,-0.081C0.217,-0.065 0.261,-0.057 0.307,-0.057C0.351,-0.057 0.387,-0.062 0.414,-0.073C0.442,-0.084 0.462,-0.099 0.475,-0.118C0.489,-0.137 0.495,-0.158 0.495,-0.18C0.495,-0.208 0.487,-0.23 0.472,-0.246C0.456,-0.263 0.436,-0.276 0.41,-0.286C0.385,-0.296 0.356,-0.304 0.326,-0.311C0.295,-0.318 0.265,-0.326 0.234,-0.335C0.203,-0.343 0.175,-0.354 0.15,-0.368C0.124,-0.382 0.103,-0.4 0.088,-0.424C0.072,-0.447 0.064,-0.477 0.064,-0.514C0.064,-0.548 0.074,-0.58 0.092,-0.609C0.11,-0.638 0.138,-0.662 0.176,-0.68C0.214,-0.698 0.262,-0.706 0.322,-0.706C0.361,-0.706 0.4,-0.701 0.439,-0.69C0.478,-0.679 0.511,-0.663 0.539,-0.644L0.514,-0.585C0.484,-0.605 0.453,-0.62 0.419,-0.629C0.385,-0.638 0.353,-0.643 0.322,-0.643C0.279,-0.643 0.244,-0.637 0.217,-0.626C0.189,-0.614 0.169,-0.599 0.156,-0.58C0.144,-0.561 0.137,-0.54 0.137,-0.516C0.137,-0.489 0.145,-0.467 0.161,-0.45C0.176,-0.434 0.197,-0.421 0.222,-0.411C0.248,-0.401 0.276,-0.393 0.307,-0.386C0.337,-0.378 0.368,-0.37 0.399,-0.362C0.429,-0.353 0.457,-0.342 0.483,-0.329C0.508,-0.315 0.529,-0.297 0.544,-0.274C0.56,-0.251 0.568,-0.221 0.568,-0.185C0.568,-0.151 0.559,-0.119 0.54,-0.09C0.522,-0.061 0.493,-0.038 0.454,-0.02C0.416,-0.002 0.367,0.006 0.307,0.006Z" style="fill:rgb(242,92,87);fill-rule:nonzero;"/>
        </g>
        <g transform="matrix(50,0,0,50,488.359462,1492.239596)">
            <path d="M0.25,-0L0.25,-0.636L0.004,-0.636L0.004,-0.7L0.57,-0.7L0.57,-0.636L0.324,-0.636L0.324,-0L0.25,-0Z" style="fill:rgb(242,92,87);fill-rule:nonzero;"/>
        </g>
        <g transform="matrix(50,0,0,50,550.112731,1492.239596)">
            <rect x="0.114" y="-0.7" width="0.073" height="0.7" style="fill:rgb(242,92,87);fill-rule:nonzero;"/>
        </g>
        <g transform="matrix(50,0,0,50,598.256026,1492.239596)">
            <path d="M0.418,0.006C0.366,0.006 0.317,-0.002 0.272,-0.02C0.228,-0.038 0.189,-0.063 0.156,-0.095C0.123,-0.127 0.098,-0.165 0.079,-0.208C0.061,-0.251 0.052,-0.299 0.052,-0.35C0.052,-0.401 0.061,-0.449 0.079,-0.492C0.098,-0.535 0.123,-0.573 0.156,-0.605C0.189,-0.637 0.228,-0.662 0.273,-0.68C0.318,-0.698 0.366,-0.706 0.419,-0.706C0.47,-0.706 0.518,-0.698 0.562,-0.681C0.606,-0.664 0.644,-0.638 0.675,-0.604L0.628,-0.557C0.6,-0.586 0.568,-0.607 0.533,-0.621C0.498,-0.634 0.461,-0.64 0.421,-0.64C0.379,-0.64 0.34,-0.633 0.304,-0.619C0.268,-0.604 0.236,-0.584 0.21,-0.557C0.183,-0.531 0.162,-0.501 0.148,-0.465C0.133,-0.43 0.125,-0.392 0.125,-0.35C0.125,-0.308 0.133,-0.27 0.148,-0.235C0.162,-0.199 0.183,-0.169 0.21,-0.143C0.236,-0.116 0.268,-0.096 0.304,-0.081C0.34,-0.067 0.379,-0.06 0.421,-0.06C0.461,-0.06 0.498,-0.066 0.533,-0.08C0.568,-0.093 0.6,-0.115 0.628,-0.144L0.675,-0.097C0.644,-0.063 0.606,-0.037 0.562,-0.02C0.518,-0.002 0.47,0.006 0.418,0.006Z" style="fill:rgb(242,92,87);fill-rule:nonzero;"/>
        </g>
        <g transform="matrix(50,0,0,50,666.652673,1492.239596)">
            <path d="M0.307,0.006C0.255,0.006 0.205,-0.002 0.157,-0.019C0.11,-0.036 0.073,-0.058 0.047,-0.085L0.076,-0.142C0.101,-0.118 0.134,-0.098 0.176,-0.081C0.217,-0.065 0.261,-0.057 0.307,-0.057C0.351,-0.057 0.387,-0.062 0.414,-0.073C0.442,-0.084 0.462,-0.099 0.475,-0.118C0.489,-0.137 0.495,-0.158 0.495,-0.18C0.495,-0.208 0.487,-0.23 0.472,-0.246C0.456,-0.263 0.436,-0.276 0.41,-0.286C0.385,-0.296 0.356,-0.304 0.326,-0.311C0.295,-0.318 0.265,-0.326 0.234,-0.335C0.203,-0.343 0.175,-0.354 0.15,-0.368C0.124,-0.382 0.103,-0.4 0.088,-0.424C0.072,-0.447 0.064,-0.477 0.064,-0.514C0.064,-0.548 0.074,-0.58 0.092,-0.609C0.11,-0.638 0.138,-0.662 0.176,-0.68C0.214,-0.698 0.262,-0.706 0.322,-0.706C0.361,-0.706 0.4,-0.701 0.439,-0.69C0.478,-0.679 0.511,-0.663 0.539,-0.644L0.514,-0.585C0.484,-0.605 0.453,-0.62 0.419,-0.629C0.385,-0.638 0.353,-0.643 0.322,-0.643C0.279,-0.643 0.244,-0.637 0.217,-0.626C0.189,-0.614 0.169,-0.599 0.156,-0.58C0.144,-0.561 0.137,-0.54 0.137,-0.516C0.137,-0.489 0.145,-0.467 0.161,-0.45C0.176,-0.434 0.197,-0.421 0.222,-0.411C0.248,-0.401 0.276,-0.393 0.307,-0.386C0.337,-0.378 0.368,-0.37 0.399,-0.362C0.429,-0.353 0.457,-0.342 0.483,-0.329C0.508,-0.315 0.529,-0.297 0.544,-0.274C0.56,-0.251 0.568,-0.221 0.568,-0.185C0.568,-0.151 0.559,-0.119 0.54,-0.09C0.522,-0.061 0.493,-0.038 0.454,-0.02C0.416,-0.002 0.367,0.006 0.307,0.006Z" style="fill:rgb(242,92,87);fill-rule:nonzero;"/>
        </g>
        <g transform="matrix(50,0,0,50,697.382639,1492.239596)">
        </g>
    </g>
    <g transform="matrix(3.843077,0,0,3.843077,-863.640964,-4330.702246)">
        <g transform="matrix(50,0,0,50,239.166647,1293.552091)">
            <path d="M0.293,-0L-0.009,-0.7L0.166,-0.7L0.43,-0.08L0.327,-0.08L0.595,-0.7L0.756,-0.7L0.453,-0L0.293,-0Z" style="fill:white;fill-rule:nonzero;"/>
        </g>
        <g transform="matrix(50,0,0,50,275.725415,1293.552091)">
            <rect x="0.083" y="-0.7" width="0.162" height="0.7" style="fill:white;fill-rule:nonzero;"/>
        </g>
        <g transform="matrix(50,0,0,50,292.139289,1293.552091)">
            <path d="M0.083,-0L0.083,-0.7L0.425,-0.7C0.513,-0.7 0.579,-0.683 0.624,-0.65C0.668,-0.617 0.69,-0.573 0.69,-0.518C0.69,-0.481 0.681,-0.449 0.663,-0.422C0.645,-0.396 0.621,-0.375 0.589,-0.36C0.558,-0.345 0.522,-0.338 0.481,-0.338L0.5,-0.379C0.544,-0.379 0.583,-0.372 0.617,-0.357C0.651,-0.343 0.677,-0.322 0.696,-0.294C0.716,-0.266 0.725,-0.231 0.725,-0.191C0.725,-0.131 0.702,-0.084 0.654,-0.05C0.607,-0.017 0.537,-0 0.445,-0L0.083,-0ZM0.244,-0.122L0.433,-0.122C0.475,-0.122 0.507,-0.129 0.529,-0.143C0.551,-0.156 0.561,-0.178 0.561,-0.208C0.561,-0.238 0.551,-0.26 0.529,-0.274C0.507,-0.288 0.475,-0.295 0.433,-0.295L0.232,-0.295L0.232,-0.413L0.405,-0.413C0.445,-0.413 0.475,-0.42 0.496,-0.434C0.516,-0.447 0.527,-0.468 0.527,-0.496C0.527,-0.523 0.516,-0.544 0.496,-0.558C0.475,-0.572 0.445,-0.578 0.405,-0.578L0.244,-0.578L0.244,-0.122Z" style="fill:white;fill-rule:nonzero;"/>
        </g>
        <g transform="matrix(50,0,0,50,330.366907,1293.552091)">
            <path d="M0.083,-0L0.083,-0.7L0.382,-0.7C0.479,-0.7 0.555,-0.677 0.609,-0.632C0.663,-0.587 0.69,-0.525 0.69,-0.446C0.69,-0.394 0.678,-0.349 0.653,-0.312C0.629,-0.274 0.594,-0.245 0.548,-0.225C0.503,-0.205 0.448,-0.195 0.386,-0.195L0.173,-0.195L0.245,-0.266L0.245,-0L0.083,-0ZM0.528,-0L0.353,-0.254L0.526,-0.254L0.703,-0L0.528,-0ZM0.245,-0.248L0.173,-0.324L0.377,-0.324C0.427,-0.324 0.464,-0.335 0.489,-0.357C0.514,-0.378 0.526,-0.408 0.526,-0.446C0.526,-0.485 0.514,-0.515 0.489,-0.536C0.464,-0.557 0.427,-0.568 0.377,-0.568L0.173,-0.568L0.245,-0.645L0.245,-0.248Z" style="fill:white;fill-rule:nonzero;"/>
        </g>
        <g transform="matrix(50,0,0,50,367.134184,1293.552091)">
            <path d="M-0.009,-0L0.303,-0.7L0.463,-0.7L0.776,-0L0.606,-0L0.35,-0.618L0.414,-0.618L0.157,-0L-0.009,-0ZM0.147,-0.15L0.19,-0.273L0.55,-0.273L0.594,-0.15L0.147,-0.15Z" style="fill:white;fill-rule:nonzero;"/>
        </g>
        <g transform="matrix(50,0,0,50,405.442953,1293.552091)">
            <path d="M0.083,-0L0.083,-0.7L0.217,-0.7L0.63,-0.196L0.565,-0.196L0.565,-0.7L0.725,-0.7L0.725,-0L0.592,-0L0.178,-0.504L0.243,-0.504L0.243,-0L0.083,-0Z" style="fill:white;fill-rule:nonzero;"/>
        </g>
        <g transform="matrix(50,0,0,50,445.854144,1293.552091)">
            <path d="M0.228,-0L0.228,-0.568L0.004,-0.568L0.004,-0.7L0.614,-0.7L0.614,-0.568L0.39,-0.568L0.39,-0L0.228,-0Z" style="fill:white;fill-rule:nonzero;"/>
        </g>
        <g transform="matrix(50,0,0,50,476.743934,1293.552091)">
        </g>
        <g transform="matrix(50,0,0,50,490.899169,1293.552091)">
            <path d="M0.563,-0L0.563,-0.7L0.725,-0.7L0.725,-0L0.563,-0ZM0.083,-0L0.083,-0.7L0.245,-0.7L0.245,-0L0.083,-0ZM0.233,-0.287L0.233,-0.424L0.575,-0.424L0.575,-0.287L0.233,-0.287Z" style="fill:white;fill-rule:nonzero;"/>
        </g>
        <g transform="matrix(50,0,0,50,531.31036,1293.552091)">
            <path d="M-0.009,-0L0.303,-0.7L0.463,-0.7L0.776,-0L0.606,-0L0.35,-0.618L0.414,-0.618L0.157,-0L-0.009,-0ZM0.147,-0.15L0.19,-0.273L0.55,-0.273L0.594,-0.15L0.147,-0.15Z" style="fill:white;fill-rule:nonzero;"/>
        </g>
        <g transform="matrix(50,0,0,50,568.869129,1293.552091)">
            <path d="M0.394,0.012C0.295,0.012 0.217,-0.016 0.161,-0.071C0.105,-0.126 0.077,-0.205 0.077,-0.308L0.077,-0.7L0.239,-0.7L0.239,-0.314C0.239,-0.247 0.253,-0.199 0.28,-0.17C0.308,-0.14 0.346,-0.126 0.395,-0.126C0.445,-0.126 0.483,-0.14 0.51,-0.17C0.537,-0.199 0.551,-0.247 0.551,-0.314L0.551,-0.7L0.711,-0.7L0.711,-0.308C0.711,-0.205 0.683,-0.126 0.627,-0.071C0.571,-0.016 0.493,0.012 0.394,0.012Z" style="fill:white;fill-rule:nonzero;"/>
        </g>
        <g transform="matrix(50,0,0,50,608.25015,1293.552091)">
            <path d="M0.083,-0L0.083,-0.7L0.245,-0.7L0.245,-0.132L0.596,-0.132L0.596,-0L0.083,-0Z" style="fill:white;fill-rule:nonzero;"/>
        </g>
        <g transform="matrix(50,0,0,50,638.466576,1293.552091)">
            <rect x="0.083" y="-0.7" width="0.162" height="0.7" style="fill:white;fill-rule:nonzero;"/>
        </g>
        <g transform="matrix(50,0,0,50,654.88045,1293.552091)">
            <path d="M0.083,-0L0.083,-0.7L0.217,-0.7L0.63,-0.196L0.565,-0.196L0.565,-0.7L0.725,-0.7L0.725,-0L0.592,-0L0.178,-0.504L0.243,-0.504L0.243,-0L0.083,-0Z" style="fill:white;fill-rule:nonzero;"/>
        </g>
        <g transform="matrix(50,0,0,50,695.291641,1293.552091)">
            <path d="M0.421,0.012C0.366,0.012 0.315,0.003 0.268,-0.015C0.222,-0.032 0.182,-0.057 0.147,-0.09C0.113,-0.122 0.087,-0.161 0.068,-0.205C0.049,-0.249 0.039,-0.297 0.039,-0.35C0.039,-0.403 0.049,-0.451 0.068,-0.495C0.087,-0.539 0.113,-0.578 0.148,-0.61C0.182,-0.643 0.223,-0.668 0.27,-0.685C0.316,-0.703 0.368,-0.712 0.424,-0.712C0.486,-0.712 0.542,-0.702 0.591,-0.681C0.641,-0.66 0.683,-0.631 0.717,-0.591L0.613,-0.495C0.588,-0.522 0.56,-0.542 0.53,-0.555C0.5,-0.568 0.467,-0.574 0.432,-0.574C0.398,-0.574 0.367,-0.569 0.339,-0.558C0.311,-0.547 0.287,-0.532 0.267,-0.512C0.246,-0.492 0.231,-0.468 0.22,-0.441C0.209,-0.414 0.203,-0.383 0.203,-0.35C0.203,-0.318 0.209,-0.288 0.22,-0.26C0.231,-0.233 0.246,-0.209 0.267,-0.189C0.287,-0.168 0.311,-0.153 0.338,-0.142C0.366,-0.131 0.396,-0.126 0.43,-0.126C0.462,-0.126 0.493,-0.131 0.523,-0.141C0.554,-0.152 0.583,-0.169 0.612,-0.194L0.704,-0.077C0.666,-0.048 0.621,-0.026 0.571,-0.011C0.521,0.004 0.471,0.012 0.421,0.012ZM0.704,-0.077L0.556,-0.098L0.556,-0.361L0.704,-0.361L0.704,-0.077Z" style="fill:white;fill-rule:nonzero;"/>
        </g>
        <g transform="matrix(50,0,0,50,733.832152,1293.552091)">
        </g>
    </g>
    <g transform="matrix(0.808552,0,0,0.808552,586.876936,33.830892)">
        <path d="M697.708,43.622C704.093,33.044 717.473,8.611 718.488,8.48C720.462,8.226 815.198,7.954 816.665,8.16C818.965,8.484 816.872,10.127 761.768,106.688C746.514,133.418 705.992,203.12 705.302,204.402C704.96,205.579 615.276,363.962 614.52,365.445C631.639,365.434 865.338,366.176 867.283,365.411C871.094,363.911 918.008,275.276 920.479,276.762C922.293,277.852 922.389,277.99 976.283,371.62C1015.503,439.757 1022.852,449.189 1022.616,453.87C994.927,453.782 461.269,452.577 461.484,451.56C461.61,450.961 539.096,317.436 550.322,297.399C561.29,277.82 565.925,274.86 560.502,274.843C552.253,274.817 460.642,274.533 457.389,275.26C454.824,275.834 355.567,452.816 351.777,453.788C344.846,455.565 268.735,454.023 261.515,453.876C254.636,453.737 254.808,452.506 251.431,446.538C196.406,349.3 194.96,350.012 192.009,340.766C191.678,339.729 190.836,339.35 190.824,339.336C190.445,338.211 190.559,338.349 189.924,337.277C180.424,321.737 24.112,45.662 13.254,26.643C10.732,22.226 7.85,18.001 5.642,13.418C4.877,11.83 5.17,9.863 4.404,8.274C61.816,8.131 407.12,7.792 407.882,8.44C408.875,9.285 322.911,159.051 308.631,179.153C294.635,158.092 259.025,89.775 255.324,89.643C247.977,89.381 148.543,86.327 151.907,92.262C291.383,338.374 289.513,339.325 303.328,359.66C304.96,362.062 312.94,348.83 341.399,298.445C358.283,268.553 495.587,33.227 509.031,10.186C510.604,7.49 610.818,8.563 610.209,9.761C608.82,12.489 511.907,178.725 508.106,185.515C506.64,188.134 612.864,188.8 615.112,185.278C618.928,179.301 696.545,45.275 697.708,43.622Z" style="fill:rgb(243,86,80);"/>
    </g>
</svg>
